<mxfile host="app.diagrams.net" modified="2021-10-28T15:32:55.027Z" agent="5.0 (Macintosh; Intel Mac OS X 10_15_7) AppleWebKit/537.36 (KHTML, like Gecko) Chrome/94.0.4606.71 Safari/537.36" etag="bArLkPKKSRQUxQg5lNoL" version="15.6.1" type="github">
  <diagram id="eYxomQJEThUo-hyBez-j" name="Page-1">
    <mxGraphModel dx="1426" dy="826" grid="1" gridSize="10" guides="1" tooltips="1" connect="1" arrows="1" fold="1" page="1" pageScale="1" pageWidth="827" pageHeight="1169" math="0" shadow="0">
      <root>
        <mxCell id="0" />
        <mxCell id="1" parent="0" />
        <mxCell id="Dvy25heNFJ2r_MmywUJR-1" value="Specify research question and hypotheses" style="rounded=0;whiteSpace=wrap;html=1;fillColor=#B2C9AB;strokeColor=#788AA3;fontColor=#46495D;" parent="1" vertex="1">
          <mxGeometry x="306" y="20" width="216" height="70" as="geometry" />
        </mxCell>
        <mxCell id="Dvy25heNFJ2r_MmywUJR-2" value="Specify statistical models that represent the hypotheses&lt;br&gt;&lt;br&gt;Example:&lt;br&gt;H&lt;sub&gt;0&lt;/sub&gt;:&amp;nbsp;δ = 0&lt;br&gt;H&lt;sub&gt;1&lt;/sub&gt;:&amp;nbsp;δ ~ Cauchy(0, 0.707)I(0,∞)" style="rounded=0;whiteSpace=wrap;html=1;fillColor=#B2C9AB;strokeColor=#788AA3;fontColor=#46495D;" parent="1" vertex="1">
          <mxGeometry x="306" y="120" width="216" height="110" as="geometry" />
        </mxCell>
        <mxCell id="Dvy25heNFJ2r_MmywUJR-3" value="" style="endArrow=classic;html=1;rounded=0;exitX=0.5;exitY=1;exitDx=0;exitDy=0;strokeColor=#788AA3;fontColor=#46495D;" parent="1" source="Dvy25heNFJ2r_MmywUJR-1" target="Dvy25heNFJ2r_MmywUJR-2" edge="1">
          <mxGeometry width="50" height="50" relative="1" as="geometry">
            <mxPoint x="390" y="430" as="sourcePoint" />
            <mxPoint x="440" y="380" as="targetPoint" />
          </mxGeometry>
        </mxCell>
        <mxCell id="Dvy25heNFJ2r_MmywUJR-4" value="Specify design of sequential testing&lt;br&gt;&lt;br&gt;&lt;div style=&quot;text-align: left&quot;&gt;&lt;span style=&quot;font-family: &amp;#34;helvetica&amp;#34; ; font-size: 12px ; font-weight: normal&quot;&gt;- evidence thresholds&lt;/span&gt;&lt;/div&gt;&lt;div style=&quot;text-align: left&quot;&gt;&lt;span style=&quot;font-family: &amp;#34;helvetica&amp;#34; ; font-size: 12px ; font-weight: normal&quot;&gt;- minimal and maximal sample size&lt;/span&gt;&lt;/div&gt;&lt;div style=&quot;text-align: left&quot;&gt;&lt;span style=&quot;font-family: &amp;#34;helvetica&amp;#34; ; font-size: 12px ; font-weight: normal&quot;&gt;- step size&lt;/span&gt;&lt;/div&gt;" style="rounded=0;whiteSpace=wrap;html=1;fillColor=#B2C9AB;strokeColor=#788AA3;fontColor=#46495D;" parent="1" vertex="1">
          <mxGeometry x="306" y="270" width="216" height="100" as="geometry" />
        </mxCell>
        <mxCell id="Dvy25heNFJ2r_MmywUJR-6" value="Step 4: Estimate run time of BFDA&lt;br&gt;&lt;span&gt;&lt;br&gt;&lt;div style=&quot;text-align: left&quot;&gt;&lt;span&gt;- run single BFDA simulation to approximate time to run one analysis&lt;/span&gt;&lt;/div&gt;&lt;div style=&quot;text-align: left&quot;&gt;&lt;span&gt;- compute the time it would take to run full BFDA&amp;nbsp;&lt;/span&gt;&lt;/div&gt;&lt;/span&gt;" style="rounded=0;whiteSpace=wrap;html=1;fillColor=#B2C9AB;strokeColor=#788AA3;fontColor=#46495D;" parent="1" vertex="1">
          <mxGeometry x="306" y="530" width="216" height="110" as="geometry" />
        </mxCell>
        <mxCell id="Dvy25heNFJ2r_MmywUJR-8" value="Is BFDA feasible?" style="strokeWidth=2;html=1;shape=mxgraph.flowchart.decision;whiteSpace=wrap;align=center;fillColor=#B2C9AB;strokeColor=#788AA3;fontColor=#46495D;" parent="1" vertex="1">
          <mxGeometry x="366" y="680" width="96" height="100" as="geometry" />
        </mxCell>
        <mxCell id="Dvy25heNFJ2r_MmywUJR-9" value="" style="endArrow=classic;html=1;rounded=0;exitX=0.5;exitY=1;exitDx=0;exitDy=0;entryX=0.5;entryY=0;entryDx=0;entryDy=0;entryPerimeter=0;strokeColor=#788AA3;fontColor=#46495D;" parent="1" source="Dvy25heNFJ2r_MmywUJR-6" target="Dvy25heNFJ2r_MmywUJR-8" edge="1">
          <mxGeometry width="50" height="50" relative="1" as="geometry">
            <mxPoint x="550" y="770" as="sourcePoint" />
            <mxPoint x="600" y="720" as="targetPoint" />
          </mxGeometry>
        </mxCell>
        <mxCell id="Dvy25heNFJ2r_MmywUJR-11" value="Yes" style="text;html=1;align=center;verticalAlign=middle;resizable=0;points=[];autosize=1;strokeColor=none;fillColor=none;fontColor=#46495D;" parent="1" vertex="1">
          <mxGeometry x="462" y="705" width="40" height="20" as="geometry" />
        </mxCell>
        <mxCell id="Dvy25heNFJ2r_MmywUJR-12" value="Run BFDA" style="rounded=0;whiteSpace=wrap;html=1;align=center;fillColor=#B2C9AB;strokeColor=#788AA3;fontColor=#46495D;" parent="1" vertex="1">
          <mxGeometry x="522" y="715" width="88" height="30" as="geometry" />
        </mxCell>
        <mxCell id="Dvy25heNFJ2r_MmywUJR-13" value="" style="endArrow=classic;html=1;rounded=0;exitX=1;exitY=0.5;exitDx=0;exitDy=0;exitPerimeter=0;strokeColor=#788AA3;fontColor=#46495D;" parent="1" source="Dvy25heNFJ2r_MmywUJR-8" target="Dvy25heNFJ2r_MmywUJR-12" edge="1">
          <mxGeometry width="50" height="50" relative="1" as="geometry">
            <mxPoint x="550" y="560" as="sourcePoint" />
            <mxPoint x="600" y="510" as="targetPoint" />
          </mxGeometry>
        </mxCell>
        <mxCell id="Dvy25heNFJ2r_MmywUJR-14" value="Is the design adequate?" style="strokeWidth=2;html=1;shape=mxgraph.flowchart.decision;whiteSpace=wrap;align=center;fillColor=#B2C9AB;strokeColor=#788AA3;fontColor=#46495D;" parent="1" vertex="1">
          <mxGeometry x="660" y="680" width="96" height="100" as="geometry" />
        </mxCell>
        <mxCell id="Dvy25heNFJ2r_MmywUJR-15" value="" style="endArrow=classic;html=1;rounded=0;exitX=1;exitY=0.5;exitDx=0;exitDy=0;entryX=0;entryY=0.5;entryDx=0;entryDy=0;entryPerimeter=0;strokeColor=#788AA3;fontColor=#46495D;" parent="1" source="Dvy25heNFJ2r_MmywUJR-12" target="Dvy25heNFJ2r_MmywUJR-14" edge="1">
          <mxGeometry width="50" height="50" relative="1" as="geometry">
            <mxPoint x="550" y="560" as="sourcePoint" />
            <mxPoint x="600" y="510" as="targetPoint" />
          </mxGeometry>
        </mxCell>
        <mxCell id="Dvy25heNFJ2r_MmywUJR-18" value="No" style="text;html=1;align=center;verticalAlign=middle;resizable=0;points=[];autosize=1;strokeColor=none;fillColor=none;fontColor=#46495D;" parent="1" vertex="1">
          <mxGeometry x="710" y="640" width="30" height="20" as="geometry" />
        </mxCell>
        <mxCell id="Dvy25heNFJ2r_MmywUJR-22" value="" style="edgeStyle=segmentEdgeStyle;endArrow=classic;html=1;rounded=0;entryX=1;entryY=0.6;entryDx=0;entryDy=0;entryPerimeter=0;exitX=0.5;exitY=0;exitDx=0;exitDy=0;exitPerimeter=0;strokeColor=#788AA3;fontColor=#46495D;" parent="1" source="Dvy25heNFJ2r_MmywUJR-14" target="Dvy25heNFJ2r_MmywUJR-4" edge="1">
          <mxGeometry width="50" height="50" relative="1" as="geometry">
            <mxPoint x="620" y="650" as="sourcePoint" />
            <mxPoint x="600" y="580" as="targetPoint" />
            <Array as="points">
              <mxPoint x="710" y="680" />
              <mxPoint x="710" y="330" />
            </Array>
          </mxGeometry>
        </mxCell>
        <mxCell id="Dvy25heNFJ2r_MmywUJR-24" value="(Optional: preregister)&lt;br&gt;Run the study" style="rounded=0;whiteSpace=wrap;html=1;align=center;fillColor=#B2C9AB;strokeColor=#788AA3;fontColor=#46495D;" parent="1" vertex="1">
          <mxGeometry x="350" y="830" width="128" height="50" as="geometry" />
        </mxCell>
        <mxCell id="Dvy25heNFJ2r_MmywUJR-25" value="" style="edgeStyle=segmentEdgeStyle;endArrow=classic;html=1;rounded=0;exitX=0.5;exitY=1;exitDx=0;exitDy=0;exitPerimeter=0;entryX=1;entryY=0.5;entryDx=0;entryDy=0;strokeColor=#788AA3;fontColor=#46495D;" parent="1" source="Dvy25heNFJ2r_MmywUJR-14" target="Dvy25heNFJ2r_MmywUJR-24" edge="1">
          <mxGeometry width="50" height="50" relative="1" as="geometry">
            <mxPoint x="550" y="1020" as="sourcePoint" />
            <mxPoint x="600" y="970" as="targetPoint" />
            <Array as="points">
              <mxPoint x="708" y="855" />
            </Array>
          </mxGeometry>
        </mxCell>
        <mxCell id="Dvy25heNFJ2r_MmywUJR-26" value="Yes" style="text;html=1;align=center;verticalAlign=middle;resizable=0;points=[];autosize=1;strokeColor=none;fillColor=none;fontColor=#46495D;" parent="1" vertex="1">
          <mxGeometry x="710" y="790" width="40" height="20" as="geometry" />
        </mxCell>
        <mxCell id="Dvy25heNFJ2r_MmywUJR-30" value="Simplify simulation" style="rounded=0;whiteSpace=wrap;html=1;align=center;fillColor=#B2C9AB;strokeColor=#788AA3;fontColor=#46495D;" parent="1" vertex="1">
          <mxGeometry x="150" y="715" width="120" height="30" as="geometry" />
        </mxCell>
        <mxCell id="Dvy25heNFJ2r_MmywUJR-31" value="" style="endArrow=classic;html=1;rounded=0;exitX=0;exitY=0.5;exitDx=0;exitDy=0;exitPerimeter=0;entryX=1;entryY=0.5;entryDx=0;entryDy=0;strokeColor=#788AA3;fontColor=#46495D;" parent="1" source="Dvy25heNFJ2r_MmywUJR-8" target="Dvy25heNFJ2r_MmywUJR-30" edge="1">
          <mxGeometry width="50" height="50" relative="1" as="geometry">
            <mxPoint x="550" y="840" as="sourcePoint" />
            <mxPoint x="600" y="790" as="targetPoint" />
          </mxGeometry>
        </mxCell>
        <mxCell id="Dvy25heNFJ2r_MmywUJR-32" value="No, but simulation &lt;br&gt;can be simplified" style="text;html=1;align=center;verticalAlign=middle;resizable=0;points=[];autosize=1;strokeColor=none;fillColor=none;fontColor=#46495D;" parent="1" vertex="1">
          <mxGeometry x="270" y="695" width="110" height="30" as="geometry" />
        </mxCell>
        <mxCell id="Dvy25heNFJ2r_MmywUJR-33" value="" style="edgeStyle=segmentEdgeStyle;endArrow=classic;html=1;rounded=0;exitX=0.5;exitY=0;exitDx=0;exitDy=0;entryX=0;entryY=0.5;entryDx=0;entryDy=0;strokeColor=#788AA3;fontColor=#46495D;" parent="1" source="Dvy25heNFJ2r_MmywUJR-30" target="Dvy25heNFJ2r_MmywUJR-6" edge="1">
          <mxGeometry width="50" height="50" relative="1" as="geometry">
            <mxPoint x="550" y="840" as="sourcePoint" />
            <mxPoint x="600" y="790" as="targetPoint" />
            <Array as="points">
              <mxPoint x="210" y="585" />
            </Array>
          </mxGeometry>
        </mxCell>
        <mxCell id="Dvy25heNFJ2r_MmywUJR-35" value="" style="endArrow=classic;html=1;rounded=0;exitX=0.5;exitY=1;exitDx=0;exitDy=0;exitPerimeter=0;entryX=0.5;entryY=0;entryDx=0;entryDy=0;strokeColor=#788AA3;fontColor=#46495D;" parent="1" source="Dvy25heNFJ2r_MmywUJR-8" target="Dvy25heNFJ2r_MmywUJR-24" edge="1">
          <mxGeometry width="50" height="50" relative="1" as="geometry">
            <mxPoint x="550" y="900" as="sourcePoint" />
            <mxPoint x="600" y="850" as="targetPoint" />
          </mxGeometry>
        </mxCell>
        <mxCell id="Dvy25heNFJ2r_MmywUJR-36" value="No" style="text;html=1;align=center;verticalAlign=middle;resizable=0;points=[];autosize=1;strokeColor=none;fillColor=none;fontColor=#46495D;" parent="1" vertex="1">
          <mxGeometry x="414" y="790" width="30" height="20" as="geometry" />
        </mxCell>
        <mxCell id="Dvy25heNFJ2r_MmywUJR-37" value="Is BFDA desired?" style="strokeWidth=2;html=1;shape=mxgraph.flowchart.decision;whiteSpace=wrap;align=center;fillColor=#B2C9AB;strokeColor=#788AA3;fontColor=#46495D;" parent="1" vertex="1">
          <mxGeometry x="360" y="400" width="96" height="100" as="geometry" />
        </mxCell>
        <mxCell id="Dvy25heNFJ2r_MmywUJR-42" value="" style="endArrow=classic;html=1;rounded=0;exitX=0.5;exitY=1;exitDx=0;exitDy=0;strokeColor=#788AA3;fontColor=#46495D;" parent="1" source="Dvy25heNFJ2r_MmywUJR-2" target="Dvy25heNFJ2r_MmywUJR-4" edge="1">
          <mxGeometry width="50" height="50" relative="1" as="geometry">
            <mxPoint x="550" y="390" as="sourcePoint" />
            <mxPoint x="600" y="340" as="targetPoint" />
          </mxGeometry>
        </mxCell>
        <mxCell id="Dvy25heNFJ2r_MmywUJR-43" value="" style="endArrow=classic;html=1;rounded=0;entryX=0.5;entryY=0;entryDx=0;entryDy=0;entryPerimeter=0;strokeColor=#788AA3;fontColor=#46495D;" parent="1" target="Dvy25heNFJ2r_MmywUJR-37" edge="1">
          <mxGeometry width="50" height="50" relative="1" as="geometry">
            <mxPoint x="408" y="370" as="sourcePoint" />
            <mxPoint x="600" y="340" as="targetPoint" />
          </mxGeometry>
        </mxCell>
        <mxCell id="Dvy25heNFJ2r_MmywUJR-44" value="" style="endArrow=classic;html=1;rounded=0;exitX=0.5;exitY=1;exitDx=0;exitDy=0;exitPerimeter=0;entryX=0.472;entryY=-0.018;entryDx=0;entryDy=0;entryPerimeter=0;strokeColor=#788AA3;fontColor=#46495D;" parent="1" source="Dvy25heNFJ2r_MmywUJR-37" target="Dvy25heNFJ2r_MmywUJR-6" edge="1">
          <mxGeometry width="50" height="50" relative="1" as="geometry">
            <mxPoint x="550" y="390" as="sourcePoint" />
            <mxPoint x="600" y="340" as="targetPoint" />
          </mxGeometry>
        </mxCell>
        <mxCell id="Dvy25heNFJ2r_MmywUJR-45" value="Yes" style="text;html=1;align=center;verticalAlign=middle;resizable=0;points=[];autosize=1;strokeColor=none;fillColor=none;fontColor=#46495D;" parent="1" vertex="1">
          <mxGeometry x="414" y="500" width="40" height="20" as="geometry" />
        </mxCell>
        <mxCell id="Dvy25heNFJ2r_MmywUJR-48" value="" style="edgeStyle=segmentEdgeStyle;endArrow=classic;html=1;rounded=0;exitX=0;exitY=0.5;exitDx=0;exitDy=0;exitPerimeter=0;entryX=0;entryY=0.5;entryDx=0;entryDy=0;strokeColor=#788AA3;fontColor=#46495D;" parent="1" source="Dvy25heNFJ2r_MmywUJR-37" target="Dvy25heNFJ2r_MmywUJR-24" edge="1">
          <mxGeometry width="50" height="50" relative="1" as="geometry">
            <mxPoint x="110" y="490" as="sourcePoint" />
            <mxPoint x="110" y="860" as="targetPoint" />
            <Array as="points">
              <mxPoint x="130" y="450" />
              <mxPoint x="130" y="855" />
            </Array>
          </mxGeometry>
        </mxCell>
        <mxCell id="Dvy25heNFJ2r_MmywUJR-49" value="No" style="text;html=1;align=center;verticalAlign=middle;resizable=0;points=[];autosize=1;strokeColor=none;fillColor=none;fontColor=#46495D;" parent="1" vertex="1">
          <mxGeometry x="320" y="420" width="30" height="20" as="geometry" />
        </mxCell>
      </root>
    </mxGraphModel>
  </diagram>
</mxfile>
